<svg xmlns="http://www.w3.org/2000/svg" width="26" height="39" fill="none" viewBox="0 0 26 39">
  <path fill="hsl(180, 80%, 20%)" d="M14.3 6.2c.6-.6 1.3-1 2-1.3l-2-4.2c-1 .3-2 1-2.8 1.7-.8.8-1.5 1.7-2 2.7C9.2 6 9 7 9 7.9a7 7 0 0 0 .5 3c.4.8.8 1.4 1.3 1.8L12 14c.4.3.6.8.6 1.3 0 .4-.1.8-.4 1.1l-1 1-1.2 1.1a6 6 0 0 0-1 1.7 9.1 9.1 0 0 0 0 5.2c.2.7.5 1.2.8 1.7l.9 1 .7 1.2c.2.4.3 1.6.3 1.6l-7.8-7-3.3 3.8 12.5 11.2 12.5-11.2-3.3-3.9-5.7 5.6c0-1.2-.2-2.1-.6-2.8-.3-.6-.6-1.2-1-1.5L13.9 24c-.3-.3-.5-.8-.5-1.3s.2-1 .6-1.3l1.3-1.3c.5-.4 1-1 1.3-1.8.4-.7.6-1.7.6-3s-.2-2.3-.6-3c-.4-.8-.8-1.4-1.3-1.8L14 9.2c-.4-.4-.6-.8-.6-1.3 0-.6.3-1.2 1-1.7z"/>
</svg>
