<svg xmlns="http://www.w3.org/2000/svg" fill="none" viewBox="0 0 66 66">
  <mask id="a" fill="#fff">
    <path d="M9 15l-1 1v41l1 1h42l1-1V36h7v21c0 5-4 8-8 8H9c-4 0-8-3-8-8V16c0-5 4-8 8-8h22l-1 7H9z"/>
  </mask>
  <path fill="hsl(335, 100%, 60%)" d="M31 8h7V1h-7v7zm21 28l-1-7-6 1v6h7zM30 15v7h6l1-7h-7zm29 21h7v-7h-8l1 7zM15 16c0 3-3 6-6 6V8c-4 0-8 3-8 8h14zm0 41V16H1v41h14zm-6-6c3 0 6 3 6 6H1c0 5 4 8 8 8V51zm42 0H9v14h42V51zm-6 6c0-3 2-6 6-6v14c4 0 8-3 8-8H45zM8 16l1-1V1C1 1-6 7-6 16H8zm0 41V16H-6v41H8zm1 1l-1-1H-6c0 8 7 15 15 15V58zm42 0H9v14h42V58zm1-1l-1 1v14c8 0 15-7 15-15H52zM9 15h22V1H9v14zm36 21v21h14V36H45zM9 22h21V8H9v14zm28-7l1-7-14-1-1 7 14 1zm15 28h7l-1-14h-7l1 14zm0-7v21h14V36H52z" mask="url(#a)"/>
  <path fill="hsl(335, 100%, 60%)" d="M22 37l4 1 3-1 1-3v-2-4l3-4 4-3h6l3-1 1-2v-3-3l3-3c1 0-1 0 0 0s-2 0 0 0L37 8V0l27 2 2 27h-8l-1-16c0 1 0-2 0 0 0 1 0-2 0 0l-2 2v4l-1 3-3 3-3 3h-8l-2 1-1 2v7a11 11 0 0 1-7 6l-5 1-5-1 2-7z"/>
</svg>
