<svg xmlns="http://www.w3.org/2000/svg" width="153" height="540" fill="none" viewBox="0 0 153 540">
  <g fill="#FF006C" opacity="1">
    <path d="M41 317.1c1.6-.8 2.1-2.7 2.8-4.9-.2.4 0-.3 0 0l1.4-3.7c.7-1.2 2-2.5 3.4-3.3-.1.1.1 0 0 0 2.6-1.5 5.5-1 8-.4 2.3.4 4.4.9 5.9-.2 3.3-2.2 2.6-7.7 2.6-7.7l4.2-.2s1.5 8.5-4.7 12c-3.5 2-6.2 1.4-8.6.8-1.8-.5-3.4-.9-5-.3-1.7.8-2.6 4-3.3 6 .1-.3-.1.5 0 0-.2 1-.6 1.8-1 2.7a7 7 0 0 1-3 3s-.2 0 0 0c-2.7 1.5-6 1.2-8.5.7-2.3-.5-4.3-.9-5.8.1-3.3 2.2-2.6 7.8-2.6 7.8l-4.3.2s-1.3-8.6 4.9-12.2c3.4-2 6-1.2 8.5-.6 1.7.4 3.4.9 5 .2zM96 307.7c1.7-.8 2.3-2.8 3-5-.2.5 0-.3 0 0 .2-.8.8-2.8 1.3-3.7.7-1.2 2-2.5 3.4-3.2-.1 0 .2 0 0 0 2.6-1.6 5.5-1 8.1-.5 2.3.5 4.3.9 5.8-.1 3.3-2.2 2.6-7.8 2.6-7.8l4.2-.2s1.5 8.6-4.6 12.1c-3.5 2-6.2 1.3-8.7.7-1.8-.4-3.4-.9-5-.2-1.7.8-2.6 4-3.3 6 .2-.4 0 .4 0 0-.2.9-.5 1.8-1 2.6a7 7 0 0 1-3 3c.1 0-.2.1 0 0-2.6 1.6-5.9 1.2-8.5.7-2.2-.4-4.3-.9-5.8.1-3.3 2.3-2.6 7.8-2.6 7.8l-4.2.2s-1.3-8.6 4.8-12.1c3.5-2 6-1.3 8.5-.7 1.8.5 3.4.9 5 .3zM123.5 326.7c1.7-.8 2.2-2.8 2.9-4.9-.2.4 0-.4 0 0l1.4-3.7c.7-1.2 2-2.5 3.4-3.3-.1.1.1 0 0 0 2.6-1.5 5.5-1 8-.4 2.3.4 4.4.8 5.9-.2 3.3-2.2 2.6-7.7 2.6-7.7l4.2-.3s1.5 8.6-4.7 12.2c-3.5 2-6.2 1.3-8.6.7-1.8-.5-3.4-1-5-.3-1.7.8-2.6 4-3.3 6 .1-.3-.1.5 0 0-.2 1-.6 1.8-1 2.6a7 7 0 0 1-3 3s-.2.2 0 0c-2.7 1.6-6 1.3-8.5.8-2.3-.5-4.3-.9-5.8.1-3.3 2.2-2.6 7.7-2.6 7.7l-4.3.3s-1.3-8.6 4.9-12.2c3.4-2 6-1.2 8.5-.6 1.7.4 3.4.9 5 .2z"/>
  </g>
  <g fill="#00D1CD" opacity="5">
    <path d="M19.4 30.5c1.6-.8 2.2-2.8 2.8-4.9 0 .4.2-.4 0 0 .3-.8 1-2.9 1.5-3.7.6-1.2 2-2.5 3.4-3.3-.2.1 0 0 0 0 2.6-1.5 5.4-1 8-.4 2.3.4 4.3.8 5.8-.2 3.3-2.2 2.6-7.7 2.6-7.7l4.3-.3s1.4 8.6-4.7 12.1c-3.5 2-6.2 1.4-8.7.7-1.7-.4-3.3-.8-5-.2-1.6.8-2.6 4-3.2 6 .1-.3-.1.5 0 0l-1 2.6a7 7 0 0 1-3.1 3c.1 0-.1.1 0 0-2.6 1.6-5.9 1.3-8.5.7-2.2-.4-4.2-.8-5.7.2-3.3 2.2-2.6 7.7-2.6 7.7l-4.3.3s-1.3-8.6 4.8-12.2c3.5-2 6.1-1.2 8.6-.6 1.7.4 3.3.8 5 .2zM74.5 21c1.7-.8 2.2-2.7 2.9-4.8-.1.4.1-.4 0 0 .2-.9 1-3 1.4-3.8.7-1.2 2-2.5 3.4-3.2-.1 0 .1-.1 0 0 2.6-1.6 5.5-1 8-.5 2.3.5 4.4.9 5.9-.1C99.4 6.4 98.7.8 98.7.8l4.2-.2s1.5 8.5-4.7 12c-3.5 2-6.2 1.4-8.6.8-1.8-.5-3.4-.9-5-.2-1.7.8-2.6 3.9-3.3 6 .1-.4-.1.4 0 0-.2.9-.6 1.7-1 2.6a7 7 0 0 1-3 3s-.2 0 0 0c-2.7 1.5-6 1.2-8.5.7-2.3-.5-4.3-.9-5.8.1-3.3 2.3-2.6 7.8-2.6 7.8l-4.3.2S54.8 25 61 21.5c3.4-2 6-1.3 8.5-.7 1.7.5 3.4.9 5 .2zM102 40.1c1.6-.8 2.2-2.8 2.8-4.9 0 .4.2-.4 0 0 .3-.8 1-2.9 1.5-3.7.6-1.2 2-2.5 3.4-3.3-.2.1 0 0 0 0 2.6-1.5 5.4-1 8-.4 2.3.4 4.3.8 5.8-.2 3.3-2.2 2.6-7.7 2.6-7.7l4.3-.3s1.4 8.6-4.7 12.1c-3.5 2-6.2 1.4-8.7.7-1.7-.4-3.3-.8-5-.2-1.6.8-2.6 4-3.2 6 .1-.3-.1.4 0 0l-1 2.6a7 7 0 0 1-3.1 3c.1 0-.1.1 0 0-2.6 1.6-5.9 1.3-8.5.7-2.2-.4-4.2-.8-5.7.2-3.4 2.2-2.6 7.7-2.6 7.7l-4.3.3s-1.3-8.6 4.8-12.2c3.5-2 6.1-1.2 8.5-.6 1.8.4 3.4.8 5.1.2z"/>
  </g>
</svg>

